<svg width="1471" height="207" viewBox="0 0 1471 207" fill="none" xmlns="http://www.w3.org/2000/svg">
<path d="M108.696 106.577C96.4666 118.638 80.6693 124.242 63.5133 124.242C19.3519 124.242 0.666604 93.8383 0.497271 62.9236C0.327937 31.8423 20.5399 0.247647 63.5133 0.247647C79.6506 0.247647 94.9373 6.36365 107.168 18.4223L92.2199 32.8597C84.4066 25.2157 73.8759 21.649 63.5133 21.649C34.8079 21.649 22.4079 43.0503 22.5786 62.9236C22.7479 82.6276 34.1279 103.181 63.5133 103.181C73.8759 103.181 85.5959 98.9343 93.4093 91.121L108.696 106.577Z" fill="#ffffff"/>
<path d="M155.07 63.2645C155.579 82.7978 166.111 103.691 194.136 103.691C222.163 103.691 232.695 82.6272 233.034 63.0952C233.374 43.0512 222.163 20.6312 194.136 20.6312C166.111 20.6312 154.56 43.2205 155.07 63.2645ZM255.116 62.7538C254.775 93.4978 235.922 124.242 194.136 124.242C152.351 124.242 132.988 94.1792 132.988 62.9245C132.988 31.6725 153.032 0.247159 194.136 0.247159C235.072 0.247159 255.455 31.6725 255.116 62.7538" fill="#ffffff"/>
<path d="M392.195 32.8601L353.468 84.4961H349.052L311.173 32.6907V119.147H288.752V0.248074H314.571L351.769 51.3734L388.968 0.248074H414.616V119.147H392.195V32.8601Z" fill="#ffffff"/>
<path d="M508.726 0.247433C490.042 0.247433 471.358 0.416765 452.674 0.416765V21.6461H508.726C537.257 21.6461 537.426 63.7701 508.726 63.7701H452.674V119.317H475.102V84.3261H508.726C566.986 84.3261 566.818 0.247433 508.726 0.247433Z" fill="#ffffff"/>
<path d="M650.053 0.247464H625.584L572.248 119.147H596.548L637.828 25.2035L678.921 119.147H703.391L650.053 0.247464Z" fill="#ffffff"/>
<path d="M1288.4 0.247464H1263.93L1210.59 119.147H1234.89L1276.17 25.2035L1317.27 119.147H1341.74L1288.4 0.247464Z" fill="#ffffff"/>
<path d="M799.862 77.1928C822.458 72.6061 829.929 56.1314 829.929 39.8248C829.929 19.2688 815.158 0.584765 787.131 0.416765C768.279 0.416765 749.426 0.247433 730.574 0.247433V21.3088H787.131C801.227 21.3088 807.518 30.8194 807.518 40.3301C807.518 49.8408 801.397 59.3514 787.131 59.3514H730.574V119.317H752.983V79.5701H774.551L809.205 119.317H835.882V117.779L799.862 77.1928Z" fill="#ffffff"/>
<path d="M1046.2 33.03C1042.12 26.2366 1030.91 19.7806 1018 19.7806C1001.35 19.7806 993.37 26.7446 993.37 35.5766C993.37 45.9393 1005.6 48.826 1019.87 50.5246C1044.67 53.582 1067.77 60.0366 1067.77 88.4033C1067.77 114.901 1044.33 126.281 1017.83 126.281C993.539 126.281 974.854 118.807 966.022 97.0646L984.707 87.3846C989.973 100.463 1003.73 106.237 1018.17 106.237C1032.27 106.237 1045.51 101.311 1045.51 88.4033C1045.51 77.1926 1033.8 72.6073 1018 70.9086C993.71 68.0193 971.287 61.566 971.287 34.898C971.287 10.438 995.407 0.417978 1017.32 0.247312C1035.83 0.247312 1055.03 5.51265 1064.03 23.858L1046.2 33.03Z" fill="#ffffff"/>
<path d="M1132.83 20.6289H1095.12V0.247586H1192.96V20.6289H1155.25V119.148H1132.83V20.6289Z" fill="#ffffff"/>
<path d="M1447.75 0.247433H1470.17V119.317H1456.24V119.487L1393.73 39.1434V119.317H1371.31V0.418098H1389.49L1447.75 74.1354V0.247433Z" fill="#ffffff"/>
<path d="M857.221 206.419L890.157 97.2994H862.249L893.427 0.24743H929.827L902.228 68.6354H939.437L857.221 206.419Z" fill="#ffc355"/>
</svg>
